<svg aria-labelledby="title desc" role="img" viewBox="60.0840756302521 72.660042 985.7142857142857 546.84" xmlns="http://www.w3.org/2000/svg" style="max-height: 500px" width="985.7142857142857" height="546.84">
  <title>IA que Ajuda — LodeX Studio</title>
  <desc id="desc">Capa social para artigo: 7 formas práticas de usar IA para acelerar o trabalho e o negócio.</desc>
  <defs>
    <linearGradient y2="1" x2="1" y1="0" x1="0" id="g1">
      <stop stop-color="#004AAD" offset="0%"/>
      <stop stop-color="#6BC2FF" offset="100%"/>
    </linearGradient>
    <radialGradient r="60%" cy="50%" cx="50%" id="glow">
      <stop stop-color="rgba(255,255,255,0.35)" offset="0%"/>
      <stop stop-color="rgba(255,255,255,0)" offset="100%"/>
    </radialGradient>
  </defs>
  <rect fill="url(#g1)" height="630" width="1200"/>
  <circle fill="url(#glow)" r="220" cy="120" cx="980"/>
  <circle fill="url(#glow)" r="260" cy="520" cx="180"/>

  
  <g stroke-width="1" stroke="#ffffff" opacity="0.10">
    <path d="M0 90 H1200 M0 180 H1200 M0 270 H1200 M0 360 H1200 M0 450 H1200 M0 540 H1200"/>
    <path d="M150 0 V630 M300 0 V630 M450 0 V630 M600 0 V630 M750 0 V630 M900 0 V630 M1050 0 V630"/>
  </g>

  
  <g fill="#ffffff">
    <text letter-spacing="0.5" font-weight="700" font-size="70" font-family="'Inter', 'Segoe UI', Roboto, Helvetica, Arial, sans-serif" y="240" x="80">
      IA que Ajuda
    </text>
    <text opacity="0.95" font-weight="500" font-size="34" font-family="'Inter', 'Segoe UI', Roboto, Helvetica, Arial, sans-serif" y="305" x="80">
      7 formas práticas de usar IA para acelerar o seu trabalho
    </text>
    <text opacity="0.9" font-size="26" font-family="'Inter', 'Segoe UI', Roboto, Helvetica, Arial, sans-serif" y="350" x="80">
      Prompts, workflows e exemplos reais — por LodeX Studio
    </text>
  </g>

  
  <rect opacity="0.15" fill="#ffffff" height="44" width="230" ry="18" rx="18" y="160" x="80"/>
  <text opacity="0.95" fill="#ffffff" font-size="20" font-family="'Inter', 'Segoe UI', Roboto, Helvetica, Arial, sans-serif" y="189" x="100">Artigo • Inteligência Artificial</text>

  
  <g transform="translate(80, 560)">
    <rect opacity="0.12" fill="#ffffff" ry="12" rx="12" height="48" width="260" y="-30" x="0"/>
    <text opacity="0.95" fill="#ffffff" font-size="22" font-family="'Inter', 'Segoe UI', Roboto, Helvetica, Arial, sans-serif" y="0" x="20">
      LodeX Studio — lodexstudio.com
    </text>
  </g>
</svg>